<svg className='bg-effects'
        width="1310"
        height="750"
        viewBox="0 0 920 526"
        fill="none"
        xmlns="http://www.w3.org/2000/svg">
        <g opacity="0.4" clip-path="url(#clip0_244_4827)">
          <path
            d="M759.42 194.868C777.325 187.444 797.447 187.444 815.351 194.868C833.238 202.285 847.456 216.53 854.859 234.422C862.269 252.33 862.269 272.5 854.859 290.408C847.456 308.3 833.238 322.545 815.351 329.962C797.447 337.386 777.325 337.386 759.42 329.962C741.534 322.545 727.315 308.3 719.912 290.408C712.503 272.5 712.503 252.33 719.912 234.422C727.315 216.53 741.534 202.285 759.42 194.868Z"
            stroke="white"
          />
          <path
            d="M749.272 159.232C773.674 149.114 801.097 149.114 825.498 159.232L833.357 162.491C857.733 172.599 877.095 191.977 887.185 216.361L890.499 224.372C900.578 248.732 900.578 276.095 890.499 300.455L887.185 308.466C877.095 332.85 857.733 352.228 833.357 362.336L825.498 365.595C801.097 375.713 773.674 375.713 749.272 365.595L741.414 362.336C717.038 352.228 697.675 332.85 687.586 308.466L684.271 300.455C674.192 276.095 674.192 248.732 684.271 224.372L687.586 216.361C697.675 191.977 717.038 172.599 741.414 162.491L749.272 159.232Z"
            stroke="white"
          />
          <path
            d="M749.274 119.389C773.675 109.27 801.098 109.27 825.5 119.389L861.5 134.317C885.876 144.425 905.239 163.803 915.328 188.187L930.299 224.371C940.378 248.73 940.378 276.094 930.299 300.453L915.328 336.637C905.239 361.022 885.876 380.399 861.5 390.507L825.5 405.436C801.098 415.554 773.675 415.554 749.274 405.436L713.274 390.507C688.897 380.399 669.535 361.022 659.446 336.637L644.474 300.453C634.395 276.094 634.395 248.73 644.474 224.371L659.446 188.187C669.535 163.803 688.897 144.425 713.274 134.317L749.274 119.389Z"
            stroke="white"
          />
          <path
            d="M749.273 79.5487C773.675 69.4302 801.098 69.4302 825.499 79.5487L889.641 106.146C914.017 116.255 933.38 135.632 943.469 160.016L970.097 224.373C980.176 248.733 980.176 276.096 970.097 300.456L943.469 364.812C933.38 389.197 914.017 408.574 889.641 418.682L825.499 445.28C801.098 455.399 773.675 455.399 749.273 445.28L685.132 418.682C660.755 408.574 641.393 389.197 631.304 364.812L604.675 300.456C594.597 276.096 594.597 248.733 604.675 224.373L631.304 160.016C641.393 135.632 660.755 116.255 685.131 106.146L749.273 79.5487Z"
            stroke="white"
          />
          <path
            d="M749.275 39.705C773.676 29.5865 801.099 29.5865 825.5 39.705L917.784 77.9722C942.16 88.0804 961.523 107.458 971.612 131.842L1009.9 224.372C1019.98 248.731 1019.98 276.095 1009.9 300.454L971.612 392.984C961.523 417.368 942.16 436.746 917.784 446.854L825.5 485.121C801.099 495.24 773.676 495.24 749.275 485.121L656.991 446.854C632.615 436.746 613.252 417.368 603.163 392.984L564.879 300.454C554.8 276.095 554.8 248.731 564.879 224.372L603.163 131.842C613.252 107.458 632.615 88.0804 656.991 77.9722L749.275 39.705Z"
            stroke="white"
          />
          <path
            d="M749.274 -0.134897C773.676 -10.2534 801.099 -10.2534 825.5 -0.134893L945.925 49.8019C970.302 59.9101 989.664 79.2877 999.753 103.672L1049.69 224.374C1059.77 248.734 1059.77 276.097 1049.69 300.457L999.753 421.159C989.664 445.543 970.302 464.921 945.925 475.029L825.5 524.966C801.099 535.084 773.676 535.084 749.274 524.966L628.849 475.029C604.473 464.921 585.11 445.543 575.021 421.159L525.08 300.457C515.001 276.097 515.001 248.734 525.08 224.374L575.021 103.672C585.11 79.2877 604.473 59.9101 628.849 49.8019L749.274 -0.134897Z"
            stroke="white"
          />
          <path
            d="M749.274 -39.9786C773.675 -50.0971 801.098 -50.0971 825.5 -39.9786L974.066 21.6277C998.443 31.7359 1017.81 51.1135 1027.89 75.4977L1089.49 224.373C1099.57 248.732 1099.57 276.096 1089.49 300.455L1027.89 449.33C1017.81 473.714 998.443 493.092 974.066 503.2L825.499 564.806C801.098 574.925 773.675 574.925 749.274 564.806L600.707 503.2C576.331 493.092 556.968 473.714 546.879 449.33L485.281 300.455C475.202 276.096 475.202 248.732 485.281 224.373L546.879 75.4977C556.968 51.1135 576.331 31.7358 600.707 21.6277L749.274 -39.9786Z"
            stroke="white"
          />
          <path
            d="M749.273 -79.8185C773.675 -89.937 801.098 -89.937 825.499 -79.8185L1002.21 -6.54259C1026.58 3.56557 1045.95 22.9432 1056.04 47.3274L1129.29 224.375C1139.37 248.735 1139.37 276.098 1129.29 300.458L1056.04 477.505C1045.95 501.89 1026.58 521.267 1002.21 531.375L825.499 604.651C801.098 614.77 773.674 614.77 749.273 604.651L572.565 531.375C548.188 521.267 528.826 501.89 518.737 477.505L445.482 300.458C435.403 276.098 435.403 248.735 445.482 224.375L518.737 47.3274C528.826 22.9432 548.188 3.56556 572.565 -6.5426L749.273 -79.8185Z"
            stroke="white"
          />
          <path
            d="M749.273 -119.662C773.674 -129.781 801.097 -129.781 825.499 -119.662L1030.35 -34.7168C1054.73 -24.6087 1074.09 -5.23105 1084.18 19.1532L1169.09 224.374C1179.17 248.733 1179.17 276.097 1169.09 300.456L1084.18 505.677C1074.09 530.061 1054.73 549.438 1030.35 559.547L825.499 644.492C801.097 654.61 773.674 654.61 749.273 644.492L544.423 559.547C520.046 549.438 500.684 530.061 490.595 505.677L405.683 300.456C395.604 276.097 395.604 248.733 405.683 224.374L490.595 19.1531C500.684 -5.23112 520.046 -24.6087 544.423 -34.7168L749.273 -119.662Z"
            stroke="white"
          />
          <path
            d="M749.272 -159.506C773.674 -169.624 801.097 -169.624 825.498 -159.506L1058.49 -62.8911C1082.87 -52.7829 1102.23 -33.4053 1112.32 -9.02109L1208.89 224.372C1218.96 248.732 1218.96 276.095 1208.89 300.454L1112.32 533.848C1102.23 558.232 1082.87 577.61 1058.49 587.718L825.498 684.333C801.097 694.451 773.674 694.451 749.272 684.333L516.28 587.718C491.904 577.61 472.542 558.232 462.452 533.848L365.884 300.455C355.806 276.095 355.806 248.732 365.884 224.372L462.452 -9.02106C472.542 -33.4053 491.904 -52.7829 516.28 -62.8911L749.272 -159.506Z"
            stroke="white"
          />
          <path
            d="M749.272 -199.346C773.673 -209.464 801.096 -209.464 825.498 -199.346L1086.63 -91.0614C1111.01 -80.9532 1130.37 -61.5756 1140.46 -37.1914L1248.68 224.375C1258.76 248.734 1258.76 276.098 1248.68 300.457L1140.46 562.023C1130.37 586.407 1111.01 605.785 1086.63 615.893L825.498 724.177C801.096 734.296 773.673 734.296 749.272 724.177L488.138 615.893C463.762 605.785 444.399 586.407 434.31 562.023L326.086 300.457C316.007 276.098 316.007 248.734 326.086 224.375L434.31 -37.1914C444.399 -61.5756 463.762 -80.9532 488.138 -91.0614L749.272 -199.346Z"
            stroke="white"
          />
          <path
            d="M749.273 -239.19C773.674 -249.308 801.098 -249.308 825.499 -239.19L1114.77 -119.236C1139.15 -109.127 1158.51 -89.7498 1168.6 -65.3656L1288.48 224.373C1298.56 248.733 1298.56 276.096 1288.48 300.456L1168.6 590.194C1158.51 614.578 1139.15 633.956 1114.77 644.064L825.499 764.018C801.098 774.137 773.674 774.137 749.273 764.018L459.998 644.064C435.622 633.956 416.259 614.578 406.17 590.194L286.289 300.456C276.21 276.096 276.21 248.733 286.289 224.373L406.17 -65.3656C416.259 -89.7498 435.622 -109.127 459.998 -119.236L749.273 -239.19Z"
            stroke="white"
          />
          <path
            d="M749.273 -279.033C773.674 -289.152 801.097 -289.152 825.499 -279.033L1142.92 -147.41C1167.29 -137.302 1186.65 -117.924 1196.74 -93.5398L1328.28 224.372C1338.36 248.731 1338.36 276.095 1328.28 300.454L1196.74 618.366C1186.65 642.75 1167.29 662.127 1142.92 672.236L825.499 803.859C801.097 813.978 773.674 813.978 749.273 803.859L431.856 672.236C407.48 662.127 388.117 642.75 378.028 618.366L246.49 300.454C236.411 276.095 236.411 248.731 246.49 224.372L378.028 -93.5398C388.117 -117.924 407.48 -137.302 431.856 -147.41L749.273 -279.033Z"
            stroke="white"
          />
          <path
            d="M749.272 -318.873C773.673 -328.992 801.097 -328.992 825.498 -318.873L1171.06 -175.58C1195.43 -165.472 1214.8 -146.094 1224.88 -121.71L1368.08 224.374C1378.16 248.733 1378.16 276.097 1368.08 300.456L1224.88 646.541C1214.8 670.925 1195.43 690.303 1171.06 700.411L825.498 843.704C801.097 853.822 773.673 853.822 749.272 843.704L403.714 700.411C379.337 690.303 359.975 670.925 349.886 646.541L206.691 300.456C196.612 276.097 196.612 248.734 206.691 224.374L349.886 -121.71C359.975 -146.094 379.337 -165.472 403.714 -175.58L749.272 -318.873Z"
            stroke="white"
          />
          <path
            d="M749.274 -358.717C773.675 -368.835 801.098 -368.835 825.5 -358.717L1199.2 -203.754C1223.58 -193.646 1242.94 -174.269 1253.03 -149.884L1407.88 224.373C1417.96 248.732 1417.96 276.096 1407.88 300.455L1253.03 674.712C1242.94 699.096 1223.58 718.474 1199.2 728.582L825.5 883.544C801.098 893.663 773.675 893.663 749.274 883.544L375.574 728.582C351.197 718.474 331.835 699.096 321.746 674.712L166.894 300.455C156.815 276.096 156.815 248.732 166.894 224.373L321.746 -149.884C331.835 -174.269 351.197 -193.646 375.574 -203.754L749.274 -358.717Z"
            stroke="white"
          />
          <path
            d="M749.275 -398.557C773.676 -408.675 801.1 -408.675 825.501 -398.557L1227.34 -231.925C1251.72 -221.817 1271.08 -202.439 1281.17 -178.055L1447.68 224.375C1457.76 248.734 1457.76 276.098 1447.68 300.457L1281.17 702.887C1271.08 727.271 1251.72 746.649 1227.34 756.757L825.501 923.389C801.1 933.508 773.676 933.508 749.275 923.389L347.433 756.757C323.057 746.649 303.694 727.271 293.605 702.887L127.097 300.457C117.018 276.098 117.018 248.734 127.097 224.375L293.605 -178.055C303.694 -202.439 323.057 -221.817 347.433 -231.925L749.275 -398.557Z"
            stroke="white"
          />
          <path
            d="M749.275 -438.401C773.676 -448.519 801.099 -448.519 825.5 -438.401L1255.48 -260.099C1279.86 -249.991 1299.22 -230.613 1309.31 -206.229L1487.48 224.374C1497.56 248.733 1497.56 276.097 1487.48 300.456L1309.31 731.058C1299.22 755.443 1279.86 774.82 1255.48 784.928L825.5 963.23C801.099 973.349 773.676 973.349 749.275 963.23L319.291 784.928C294.915 774.82 275.552 755.443 265.463 731.058L87.2985 300.456C77.2196 276.097 77.2196 248.733 87.2985 224.374L265.463 -206.229C275.552 -230.613 294.915 -249.991 319.291 -260.099L749.275 -438.401Z"
            stroke="white"
          />
          <path
            d="M749.274 -478.244C773.676 -488.363 801.099 -488.363 825.5 -478.244L1283.63 -288.273C1308 -278.165 1327.36 -258.787 1337.45 -234.403L1527.27 224.372C1537.35 248.732 1537.35 276.095 1527.27 300.455L1337.45 759.23C1327.36 783.614 1308 802.992 1283.63 813.1L825.5 1003.07C801.099 1013.19 773.676 1013.19 749.274 1003.07L291.149 813.1C266.773 802.992 247.41 783.614 237.321 759.23L47.4997 300.455C37.4208 276.095 37.4208 248.732 47.4996 224.372L237.321 -234.403C247.41 -258.787 266.773 -278.165 291.149 -288.273L749.274 -478.244Z"
            stroke="white"
          />
          <path
            d="M749.274 -518.084C773.675 -528.203 801.098 -528.203 825.499 -518.084L1311.77 -316.443C1336.14 -306.335 1355.51 -286.958 1365.59 -262.573L1567.07 224.375C1577.15 248.734 1577.15 276.098 1567.07 300.457L1365.59 787.405C1355.51 811.789 1336.14 831.167 1311.77 841.275L825.5 1042.92C801.098 1053.03 773.675 1053.03 749.274 1042.92L263.007 841.275C238.63 831.167 219.268 811.789 209.179 787.405L7.7008 300.457C-2.37806 276.097 -2.37804 248.734 7.70082 224.375L209.179 -262.573C219.268 -286.958 238.63 -306.335 263.007 -316.443L749.274 -518.084Z"
            stroke="white"
          />
          <path
            d="M749.272 -557.604C773.674 -567.722 801.097 -567.722 825.498 -557.604L1339.68 -344.388C1364.05 -334.28 1383.42 -314.902 1393.51 -290.518L1606.55 224.374C1616.63 248.733 1616.63 276.097 1606.55 300.456L1393.51 815.348C1383.42 839.732 1364.05 859.11 1339.68 869.218L825.498 1082.43C801.097 1092.55 773.674 1092.55 749.272 1082.43L235.092 869.218C210.716 859.11 191.353 839.733 181.264 815.348L-31.7757 300.456C-41.8546 276.097 -41.8546 248.733 -31.7757 224.374L181.264 -290.518C191.353 -314.902 210.716 -334.28 235.092 -344.388L749.272 -557.604Z"
            stroke="white"
          />
          <path
            d="M749.272 -596.404C773.674 -606.523 801.097 -606.523 825.498 -596.404L1367.08 -371.824C1391.46 -361.716 1410.82 -342.339 1420.91 -317.954L1645.3 224.374C1655.38 248.733 1655.38 276.096 1645.3 300.456L1420.91 842.784C1410.82 867.168 1391.46 886.546 1367.08 896.654L825.498 1121.23C801.097 1131.35 773.674 1131.35 749.272 1121.23L207.686 896.654C183.31 886.546 163.948 867.168 153.858 842.784L-70.5336 300.456C-80.6124 276.096 -80.6124 248.733 -70.5336 224.374L153.858 -317.955C163.948 -342.339 183.31 -361.716 207.686 -371.824L749.272 -596.404Z"
            stroke="white"
          />
          <path
            d="M749.274 -630.893C773.676 -641.011 801.099 -641.011 825.5 -630.893L1391.45 -396.211C1415.82 -386.103 1435.19 -366.725 1445.27 -342.341L1679.76 224.375C1689.84 248.734 1689.84 276.098 1679.76 300.457L1445.27 867.173C1435.19 891.557 1415.82 910.935 1391.45 921.043L825.5 1155.72C801.099 1165.84 773.676 1165.84 749.274 1155.72L183.328 921.043C158.951 910.934 139.589 891.557 129.5 867.173L-104.983 300.457C-115.062 276.098 -115.062 248.734 -104.983 224.375L129.5 -342.341C139.589 -366.725 158.951 -386.103 183.328 -396.211L749.274 -630.893Z"
            stroke="white"
          />
        </g>
        <defs>
          <clipPath id="clip0_244_4827">
            <rect width="901" height="526" fill="white" />
          </clipPath>
        </defs>
      </svg>
